<?xml version="1.0" encoding="UTF-8"?>
<svg width="130px" height="28px" viewBox="0 0 130 28" version="1.1" xmlns="http://www.w3.org/2000/svg" xmlns:xlink="http://www.w3.org/1999/xlink">
    <!-- Generator: Sketch 52.5 (67469) - http://www.bohemiancoding.com/sketch -->
    <title>分组</title>
    <desc>Created with Sketch.</desc>
    <g id="页面-1" stroke="none" stroke-width="1" fill="none" fill-rule="evenodd">
        <g id="登录2" transform="translate(-1152.000000, -80.000000)">
            <g id="分组" transform="translate(1152.000000, 80.000000)">
                <path d="M68.3523626,11.2642519 L68.3523626,26.666771 C68.3523626,27.2974198 67.8338511,27.8154351 67.2036985,27.8154351 L62.5460267,27.8154351 C61.9153779,27.8154351 61.3968664,27.2974198 61.3968664,26.666771 L61.3968664,11.5783359 C61.3968664,10.947687 61.9153779,10.4291756 62.5460267,10.4291756 L67.5167901,10.4291756 C67.9762557,10.4291756 68.3523626,10.8052824 68.3523626,11.2642519" id="Fill-1" fill="#005BAC"></path>
                <path d="M68.3523626,11.2642519 L68.3523626,26.666771 C68.3523626,27.2974198 67.8338511,27.8154351 67.2036985,27.8154351 L62.5460267,27.8154351 C61.9153779,27.8154351 61.3968664,27.2974198 61.3968664,26.666771 L61.3968664,11.5783359 C61.3968664,10.947687 61.9153779,10.4291756 62.5460267,10.4291756 L67.5167901,10.4291756 C67.9762557,10.4291756 68.3523626,10.8052824 68.3523626,11.2642519" id="Fill-3" fill="#005BAC"></path>
                <path d="M62.5454809,0.00129007634 L67.204145,0.00129007634 C67.8347939,0.00129007634 68.3508244,0.517816794 68.3508244,1.14846565 L68.3508244,5.80712977 C68.3508244,6.43827481 67.8347939,6.95430534 67.204145,6.95430534 L62.5454809,6.95430534 C61.9143359,6.95430534 61.3978092,6.43827481 61.3978092,5.80712977 L61.3978092,1.14846565 C61.3978092,0.517816794 61.9143359,0.00129007634 62.5454809,0.00129007634" id="Fill-5" fill="#E60012"></path>
                <path d="M129.60871,1.14846565 L129.60871,4.41632824 C129.60871,5.0469771 129.092183,5.56350382 128.461038,5.56350382 L119.248405,5.56350382 L119.248405,26.6666718 C119.248405,27.2978168 118.731878,27.8143435 118.101229,27.8143435 L113.442565,27.8143435 C112.81142,27.8143435 112.294893,27.2978168 112.294893,26.6666718 L112.294893,5.56350382 L103.08226,5.56350382 C102.451611,5.56350382 101.934588,5.0469771 101.934588,4.41632824 L101.934588,1.14846565 C101.934588,0.517320611 102.451611,0.00129007634 103.08226,0.00129007634 L128.461038,0.00129007634 C129.092183,0.00129007634 129.60871,0.517320611 129.60871,1.14846565" id="Fill-7" fill="#005BAC"></path>
                <path d="M78.4126756,13.9080153 C78.4126756,10.1519084 81.4240115,7.10534351 85.1409198,7.10534351 C88.8622939,7.10534351 91.874126,10.1519084 91.874126,13.9080153 C91.874126,17.6641221 88.8622939,20.710687 85.1409198,20.710687 C81.4240115,20.710687 78.4126756,17.6641221 78.4126756,13.9080153 M96.2405382,5.59694656 C96.2355763,5.59198473 96.2355763,5.59198473 96.2306145,5.5870229 C95.4317595,4.51526718 94.4840496,3.56259542 93.4172557,2.76374046 C91.1100038,1.02709924 88.2465305,0 85.1409198,0 C77.4996985,0 71.3073321,6.22709924 71.3073321,13.9080153 C71.3073321,21.5889313 77.4996985,27.8160305 85.1409198,27.8160305 C92.7821412,27.8160305 98.9794695,21.5889313 98.9794695,13.9080153 C98.9794695,10.7919847 97.9617977,7.91412214 96.2405382,5.59694656" id="Fill-9" fill="#005BAC"></path>
                <path d="M85.1407214,20.7106374 C81.4243092,20.7106374 78.4124771,17.6640725 78.4124771,13.9079656 C78.4124771,10.1518588 81.4243092,7.10529389 85.1407214,7.10529389 C88.8620954,7.10529389 91.8739275,10.1518588 91.8739275,13.9079656 C91.8739275,17.6640725 88.8620954,20.7106374 85.1407214,20.7106374 M96.2403397,5.59689695 C96.2353779,5.59193511 96.2353779,5.59193511 96.2309122,5.58697328 C95.4866374,4.47056107 94.5285076,3.51292748 93.4175534,2.76369084 C91.7652634,1.64727863 89.7701107,0.992316794 87.6216374,0.992316794 C81.900645,0.992316794 77.2613321,5.63162977 77.2613321,11.357584 C77.2613321,17.0835382 81.900645,21.7228511 87.6216374,21.7228511 C93.3475916,21.7228511 97.9874008,17.0835382 97.9874008,11.357584 C97.9874008,9.22399618 97.3418664,7.24422519 96.2403397,5.59689695" id="Fill-11" fill="#E60012"></path>
                <path d="M31.3940076,0.00297709924 L36.0531679,0.00297709924 C36.6838168,0.00297709924 37.1998473,0.519007634 37.1998473,1.15064885 L37.1998473,10.4327481 L57.086374,10.4327481 C57.5453435,10.4327481 57.920458,10.8083588 57.920458,11.2673282 L57.920458,26.6683588 C57.920458,27.2995038 57.4044275,27.8160305 56.7732824,27.8160305 L52.1146183,27.8160305 C51.4839695,27.8160305 50.9669466,27.2995038 50.9669466,26.6683588 L50.9669466,15.9949618 L37.1998473,15.9949618 L37.1998473,26.6683588 C37.1998473,27.2995038 36.6838168,27.8160305 36.0531679,27.8160305 L31.3940076,27.8160305 C30.7633588,27.8160305 30.2463359,27.2995038 30.2463359,26.6683588 L30.2463359,1.15064885 C30.2463359,0.519007634 30.7633588,0.00297709924 31.3940076,0.00297709924" id="Fill-13" fill="#005BAC"></path>
                <path d="M31.3940076,0.00297709924 L36.0531679,0.00297709924 C36.6838168,0.00297709924 37.1998473,0.519007634 37.1998473,1.15064885 L37.1998473,10.4327481 L57.086374,10.4327481 C57.5453435,10.4327481 57.920458,10.8083588 57.920458,11.2673282 L57.920458,26.6683588 C57.920458,27.2995038 57.4044275,27.8160305 56.7732824,27.8160305 L52.1146183,27.8160305 C51.4839695,27.8160305 50.9669466,27.2995038 50.9669466,26.6683588 L50.9669466,15.9949618 L37.1998473,15.9949618 L37.1998473,26.6683588 C37.1998473,27.2995038 36.6838168,27.8160305 36.0531679,27.8160305 L31.3940076,27.8160305 C30.7633588,27.8160305 30.2463359,27.2995038 30.2463359,26.6683588 L30.2463359,1.15064885 C30.2463359,0.519007634 30.7633588,0.00297709924 31.3940076,0.00297709924" id="Fill-15" fill="#005BAC"></path>
                <path d="M56.7729847,0.00297709924 L52.1143206,0.00297709924 C51.4836718,0.00297709924 50.967145,0.519007634 50.967145,1.15064885 L50.967145,10.4327481 L31.0806183,10.4327481 C30.6216489,10.4327481 30.2465344,10.8083588 30.2465344,11.2673282 L30.2465344,26.6683588 C30.2465344,27.2995038 30.7625649,27.8160305 31.3937099,27.8160305 L36.052374,27.8160305 C36.6835191,27.8160305 37.2000458,27.2995038 37.2000458,26.6683588 L37.2000458,15.9949618 L50.967145,15.9949618 L50.967145,26.6683588 C50.967145,27.2995038 51.4836718,27.8160305 52.1143206,27.8160305 L56.7729847,27.8160305 C57.4036336,27.8160305 57.9206565,27.2995038 57.9206565,26.6683588 L57.9206565,1.15064885 C57.9206565,0.519007634 57.4036336,0.00297709924 56.7729847,0.00297709924" id="Fill-17" fill="#005BAC"></path>
                <path d="M56.7729847,0.00297709924 L52.1143206,0.00297709924 C51.4836718,0.00297709924 50.967145,0.519007634 50.967145,1.15064885 L50.967145,10.4327481 L31.0806183,10.4327481 C30.6216489,10.4327481 30.2465344,10.8083588 30.2465344,11.2673282 L30.2465344,26.6683588 C30.2465344,27.2995038 30.7625649,27.8160305 31.3937099,27.8160305 L36.052374,27.8160305 C36.6835191,27.8160305 37.2000458,27.2995038 37.2000458,26.6683588 L37.2000458,15.9949618 L50.967145,15.9949618 L50.967145,26.6683588 C50.967145,27.2995038 51.4836718,27.8160305 52.1143206,27.8160305 L56.7729847,27.8160305 C57.4036336,27.8160305 57.9206565,27.2995038 57.9206565,26.6683588 L57.9206565,1.15064885 C57.9206565,0.519007634 57.4036336,0.00297709924 56.7729847,0.00297709924" id="Fill-19" fill="#005BAC"></path>
                <path d="M20.8600382,9.28557252 C20.8600382,9.91622137 21.3760687,10.4327481 22.0072137,10.4327481 L26.6658779,10.4327481 C27.2970229,10.4327481 27.8130534,9.91622137 27.8130534,9.28557252 L27.8130534,7.17828244 C27.8130534,3.23064885 24.488626,0.00297709924 20.4268702,0.00297709924 L7.38717557,0.00297709924 C3.32591603,0.00297709924 0,3.2321374 0,7.17828244 L0,20.640229 C0,24.5858779 3.32492366,27.8160305 7.38717557,27.8160305 L20.4268702,27.8160305 C24.4891221,27.8160305 27.8130534,24.586374 27.8130534,20.640229 L27.8130534,17.2815649 C27.8130534,16.6504198 27.2970229,16.1338931 26.6658779,16.1338931 L22.0072137,16.1338931 C21.3760687,16.1338931 20.8600382,16.6504198 20.8600382,17.2815649 L20.8600382,19.9167939 C20.8600382,21.2024046 19.808626,22.2528244 18.5240076,22.2528244 L9.29003817,22.2528244 C8.00492366,22.2528244 6.95351145,21.2024046 6.95351145,19.9167939 L6.95351145,7.90171756 C6.95351145,6.61660305 8.00492366,5.56519084 9.29003817,5.56519084 L18.5240076,5.56519084 C19.808626,5.56519084 20.8600382,6.61660305 20.8600382,7.90171756 L20.8600382,9.28557252 Z" id="Fill-21" fill="#005BAC"></path>
            </g>
        </g>
    </g>
</svg>